# xmcd
#
# Track frame offsets: 
#        150
#        13056
#        28556
#        41389
#        55490
#        70567
#        86456
#        91100
#        107823
#        118454
#        129162
#        142401
#        157936
#
# Disc length: 2168 seconds
#
# Revision: 0
# Processed by: cddbd v1.4PL0 Copyright (c) Steve Scherf et al.
# Submitted via: ExactAudioCopy v0.95a3
#
DISCID=a808760d
DTITLE=King Wilke - True Songs
DYEAR=2003
DGENRE=Bluegrass
TTITLE0=Goodbye Old Pal
TTITLE1=All The Good Times Are Past And Gone
TTITLE2=Cold Winds
TTITLE3=Does It Have To End This Way
TTITLE4=It's Been A Long Time
TTITLE5=In The Pines
TTITLE6=President Garfield's Hornpipe
TTITLE7=Little Cabin Home On The Hill
TTITLE8=Armadillo Breakdown
TTITLE9=Memphis Special
TTITLE10=Walk Softly On This Heart Of Mine
TTITLE11=Things In Life
TTITLE12=Freight Train
EXTD=
EXTT0=
EXTT1=
EXTT2=
EXTT3=
EXTT4=
EXTT5=
EXTT6=
EXTT7=
EXTT8=
EXTT9=
EXTT10=
EXTT11=
EXTT12=
PLAYORDER=
